<?xml version="1.0" encoding="UTF-8" standalone="no"?><!DOCTYPE svg PUBLIC "-//W3C//DTD SVG 1.1//EN" "http://www.w3.org/Graphics/SVG/1.1/DTD/svg11.dtd"><svg xmlns="http://www.w3.org/2000/svg" xmlns:xlink="http://www.w3.org/1999/xlink" version="1.1" width="180" height="216" viewBox="0 0 180 216">
<desc>Created with SVGMaker Editor 3.0.0</desc>
<defs>
</defs>
<g transform="matrix(0.98701 0 0 1.13377 89.8572 108.00092)">
<linearGradient id="SVGID_bottomFace_10" gradientUnits="userSpaceOnUse" gradientTransform="matrix(1 0 0 1 -90 -122)" x1="-4" y1="168" x2="180" y2="210">
<stop offset="0%" style="stop-color:rgba(201,145,67,1);"/>
<stop offset="55.00000000000001%" style="stop-color:rgba(183,122,48,1);"/>
<stop offset="100%" style="stop-color:rgba(142,85,31,1);"/>
</linearGradient>
<rect transform="translate(0,0)" style="stroke: rgb(112,67,20); stroke-width: 3.5; fill: url(#SVGID_bottomFace_10)" x="-88" y="-92" rx="30" ry="30" width="176" height="184" vector-effect="non-scaling-stroke"/>
</g>
<g transform="matrix(0.96903 0 0 0.95379 90.31414 185.29853)">
<linearGradient id="SVGID_bottomLight_11" gradientUnits="userSpaceOnUse" gradientTransform="matrix(1 0 0 1 0 0)" x1="0" y1="174" x2="168" y2="198">
<stop offset="0%" style="stop-color:rgba(222,176,100,0.85);"/>
<stop offset="100%" style="stop-color:rgba(166,101,39,0.65);"/>
</linearGradient>
<path transform=" translate(-90, -186.5)" style="fill: url(#SVGID_bottomLight_11); opacity: 0.72" stroke-linecap="round" d="M 26 185 L 154 185 C 167.3 185 178 174.3 178 161 L 178 188 C 178 201.3 167.3 212 154 212 L 26 212 C 12.7 212 2 201.3 2 188 L 2 161 C 2 174.3 12.7 185 26 185 Z"/>
</g>
<g transform="matrix(0.94416 0 0 0.94082 89.68586 96.38078)">
<linearGradient id="SVGID_topFace_12" gradientUnits="userSpaceOnUse" gradientTransform="matrix(1 0 0 1 -90 -97)" x1="10" y1="14" x2="152" y2="178">
<stop offset="0%" style="stop-color:rgba(255,244,208,1);"/>
<stop offset="55.00000000000001%" style="stop-color:rgba(244,215,160,1);"/>
<stop offset="100%" style="stop-color:rgba(230,184,109,1);"/>
</linearGradient>
<rect transform="translate(0,0)" style="stroke: rgb(228,195,160); stroke-width: 2; fill: url(#SVGID_topFace_12)" x="-88" y="-95" rx="32" ry="32" width="176" height="190"/>
</g>
</svg>
